<?xml version="1.0" encoding="utf-8"?>
<!-- Generator: Adobe Illustrator 27.3.1, SVG Export Plug-In . SVG Version: 6.00 Build 0)  -->
<svg version="1.1" id="圖層_1" xmlns="http://www.w3.org/2000/svg" xmlns:xlink="http://www.w3.org/1999/xlink" x="0px" y="0px"
	 viewBox="0 0 170.1 51" style="enable-background:new 0 0 170.1 51;" xml:space="preserve">
<style type="text/css">
	.st0{fill:#0D131A;}
	.st1{fill:url(#SVGID_1_);}
	.st2{fill:#231815;}
</style>
<g>
	<g>
		<g>
			<path class="st0" d="M12.9,16.4h3.3c2.5,0,4.8-1.8,5.2-4.1c0.4-2.3-1.3-4.1-3.8-4.1h-3.3L12.9,16.4z M16.3,10h0.5
				c1.5,0,2.4,0.8,2.1,2.3c-0.3,1.6-1.6,2.3-2.9,2.3h-0.5L16.3,10z"/>
			<polygon class="st0" points="26.1,8.2 23.8,8.2 22.5,16.4 24.8,16.4 			"/>
			<path class="st0" d="M32,11.8l-0.3,1.7h1.9c-0.3,0.9-1.1,1.4-2.1,1.4c-1.5,0-2.1-1.3-1.9-2.6c0.2-1.2,1.2-2.6,2.7-2.6
				c0.9,0,1.5,0.5,1.7,1.3l2.3-0.8c-0.5-1.5-1.8-2.3-3.6-2.3c-2.9,0-5.1,1.7-5.5,4.4c-0.4,2.6,1.2,4.3,4,4.3c1.5,0,2.9-0.5,3.9-1.6
				c1-1,1.2-2,1.4-3.2H32z"/>
			<polygon class="st0" points="41.3,8.2 39,8.2 37.7,16.4 40,16.4 			"/>
			<polygon class="st0" points="47.2,10 49.1,10 49.4,8.2 43.3,8.2 43,10 44.9,10 43.8,16.4 46.1,16.4 			"/>
			<path class="st0" d="M54.8,14.9l0.3,1.4h2.5l-2-8.2h-2.5l-4.8,8.2h2.4l0.8-1.4H54.8z M54.4,13.3h-1.9l1.4-2.6h0L54.4,13.3z"/>
			<polygon class="st0" points="63.1,8.2 60.8,8.2 59.5,16.4 64.5,16.4 64.8,14.6 62.1,14.6 			"/>
		</g>
		<g>
			<path class="st0" d="M72.2,26.6h2.3l0.5-2.7h1.3c2,0,3.3-0.8,3.6-2.8c0.3-1.9-0.9-2.7-2.8-2.7h-3.5L72.2,26.6z M75.6,20.2H76
				c0.9,0,1.7,0,1.5,1c-0.2,1-1,1-1.8,1h-0.4L75.6,20.2z"/>
			<path class="st0" d="M85.8,23.3c1.3-0.2,2.1-1.2,2.3-2.3c0.3-1.7-0.9-2.5-2.7-2.5H82l-1.4,8.2H83l0.5-3.1h0l1.6,3.1H88L85.8,23.3
				z M84.1,20.1h0.2c0.8,0,1.6,0.1,1.4,1c-0.1,0.9-1,1-1.8,1h-0.2L84.1,20.1z"/>
			<path class="st0" d="M95.2,18.2c-2.5,0-5.2,1.7-5.6,4.2c-0.4,2.6,1.3,4.5,4.1,4.5c2.8,0,5.2-1.9,5.6-4.5
				C99.8,19.9,97.8,18.2,95.2,18.2z M94.9,20.3c1.4,0,2.3,1,2.1,2.2c-0.2,1.4-1.5,2.4-2.9,2.4c-1.4,0-2.3-1-2.1-2.4
				C92.2,21.3,93.5,20.3,94.9,20.3z"/>
			<path class="st0" d="M103.7,18.5l-0.9,5.4c-0.1,0.5-0.2,1.2-0.9,1.2c-0.3,0-0.6-0.4-0.8-0.7l-1.5,1.3c0.4,0.7,1.1,1.2,2.1,1.2
				c2,0,3.1-1.1,3.4-2.9l0.9-5.5H103.7z"/>
			<polygon class="st0" points="113.6,20.3 113.9,18.5 108.9,18.5 107.5,26.6 112.6,26.6 112.9,24.8 110.1,24.8 110.4,23.4 
				113,23.4 113.3,21.6 110.7,21.6 110.9,20.3 			"/>
			<path class="st0" d="M122.6,18.7c-0.6-0.3-1.3-0.4-2-0.4c-1.2,0-2.6,0.5-3.6,1.3c-1,0.8-1.6,1.9-1.8,3c-0.2,1.2,0.1,2.3,0.9,3.1
				c0.8,0.8,1.9,1.2,3.1,1.2c0.7,0,1.3-0.2,2.1-0.4l0.4-2.5c-0.6,0.5-1.4,0.9-2.1,0.9c-1.4,0-2.2-0.9-2-2.2c0.2-1.3,1.3-2.3,2.7-2.3
				c0.8,0,1.5,0.3,1.9,0.9L122.6,18.7z"/>
			<polygon class="st0" points="128.2,20.3 130.1,20.3 130.4,18.5 124.3,18.5 124,20.3 125.9,20.3 124.8,26.6 127.1,26.6 			"/>
			<polygon class="st0" points="134.8,18.5 132.5,18.5 131.2,26.6 133.5,26.6 			"/>
			<path class="st0" d="M141.7,18.2c-2.5,0-5.2,1.7-5.6,4.2c-0.4,2.6,1.3,4.5,4.1,4.5c2.8,0,5.2-1.9,5.6-4.5
				C146.3,19.9,144.3,18.2,141.7,18.2z M141.4,20.3c1.4,0,2.3,1,2.1,2.2c-0.2,1.4-1.5,2.4-2.9,2.4c-1.4,0-2.3-1-2.1-2.4
				C138.7,21.3,140,20.3,141.4,20.3z"/>
			<polygon class="st0" points="147.3,26.6 149.6,26.6 150.4,21.6 150.4,21.6 153.8,26.6 156.1,26.6 157.5,18.5 155.2,18.5 
				154.3,23.5 154.3,23.5 150.9,18.5 148.6,18.5 			"/>
		</g>
		
			<linearGradient id="SVGID_1_" gradientUnits="userSpaceOnUse" x1="133.2437" y1="40.4017" x2="248.5283" y2="99.2678" gradientTransform="matrix(1 0 0 1 -105.75 -52.5)">
			<stop  offset="2.000000e-02" style="stop-color:#9B0182"/>
			<stop  offset="5.000000e-02" style="stop-color:#0069AB"/>
			<stop  offset="0.1" style="stop-color:#00A6E9"/>
			<stop  offset="0.16" style="stop-color:#009E41"/>
			<stop  offset="0.27" style="stop-color:#FFF000"/>
			<stop  offset="0.4" style="stop-color:#EF8200"/>
			<stop  offset="0.5" style="stop-color:#D7000F"/>
			<stop  offset="0.6" style="stop-color:#EF8200"/>
			<stop  offset="0.73" style="stop-color:#FFF000"/>
			<stop  offset="0.84" style="stop-color:#009E41"/>
			<stop  offset="0.9" style="stop-color:#00A6E9"/>
			<stop  offset="0.96" style="stop-color:#0069AB"/>
			<stop  offset="0.97" style="stop-color:#9B0182"/>
		</linearGradient>
		<polygon class="st1" points="12.7,18.2 11.1,26.6 66.5,26.6 71.7,16.4 157.6,16.4 159,8 72.5,8 67.2,18.2 		"/>
	</g>
	<g>
		<g>
			<path class="st2" d="M29.4,41.1c0,0-0.1-0.1-0.1-0.1c0,0,0,0,0-0.1l2.3-6.6c0,0,0-0.1,0.1-0.1c0,0,0.1,0,0.1,0h1.3
				c0,0,0.1,0,0.1,0c0,0,0.1,0.1,0.1,0.1l2.3,6.6c0,0,0,0.1,0,0.1c0,0.1,0,0.1-0.1,0.1c0,0-0.1,0.1-0.1,0.1h-0.9c0,0-0.1,0-0.1,0
				c0,0-0.1-0.1-0.1-0.1l-0.5-1.6h-2.6L30.7,41c0,0,0,0.1-0.1,0.1c0,0-0.1,0-0.1,0h-0.9C29.5,41.1,29.5,41.1,29.4,41.1z M33.5,38.4
				l-1-2.8h-0.1l-0.9,2.8H33.5z"/>
			<path class="st2" d="M39.2,41.1c0,0-0.1-0.1-0.1-0.1v-6.6c0-0.1,0-0.1,0.1-0.1c0,0,0.1-0.1,0.1-0.1h2.2c0.7,0,1.3,0.1,1.8,0.4
				c0.5,0.3,0.9,0.7,1.2,1.2c0.3,0.5,0.4,1.2,0.4,1.9c0,0.7-0.1,1.4-0.4,1.9c-0.3,0.5-0.7,0.9-1.2,1.2c-0.5,0.3-1.1,0.4-1.8,0.4
				h-2.2C39.3,41.1,39.2,41.1,39.2,41.1z M41.5,40c0.5,0,0.9-0.1,1.2-0.3c0.3-0.2,0.6-0.4,0.7-0.8c0.2-0.4,0.2-0.8,0.2-1.3
				c0-0.5-0.1-1-0.2-1.3c-0.2-0.4-0.4-0.6-0.7-0.8c-0.3-0.2-0.7-0.3-1.2-0.3h-1.1V40H41.5z"/>
			<path class="st2" d="M47,40.9c-0.4-0.2-0.7-0.5-0.9-0.9c-0.2-0.4-0.3-0.9-0.3-1.4c0-0.5,0.1-1,0.3-1.4c0.2-0.4,0.5-0.7,0.9-1
				c0.4-0.2,0.8-0.3,1.3-0.3c0.3,0,0.6,0.1,0.9,0.2c0.3,0.1,0.5,0.3,0.8,0.5c0.2,0.2,0.4,0.5,0.5,0.8c0.1,0.3,0.2,0.7,0.2,1.2v0.2
				c0,0.1,0,0.1-0.1,0.1c0,0-0.1,0.1-0.1,0.1h-3.5c0,0.3,0.1,0.5,0.2,0.8c0.1,0.2,0.3,0.4,0.5,0.5c0.2,0.1,0.4,0.2,0.7,0.2
				c0.2,0,0.3,0,0.5-0.1c0.1-0.1,0.3-0.1,0.4-0.2c0.1-0.1,0.1-0.2,0.2-0.3c0,0,0-0.1,0.1-0.1c0,0,0.1,0,0.1,0l0.8,0.1
				c0.1,0,0.1,0,0.1,0.1c0,0,0,0.1,0,0.1c0,0,0,0.1,0,0.1c-0.1,0.2-0.2,0.4-0.3,0.6c-0.2,0.2-0.5,0.4-0.8,0.5
				c-0.3,0.1-0.7,0.2-1.1,0.2C47.9,41.2,47.4,41.1,47,40.9z M49.6,38c0-0.2-0.1-0.5-0.2-0.6c-0.1-0.2-0.2-0.3-0.4-0.4
				c-0.2-0.1-0.4-0.2-0.6-0.2c-0.3,0-0.5,0.1-0.7,0.2c-0.2,0.1-0.3,0.3-0.4,0.5c-0.1,0.2-0.1,0.4-0.2,0.6H49.6z"/>
			<path class="st2" d="M51.9,41.1c0,0-0.1-0.1-0.1-0.1v-6.6c0,0,0-0.1,0-0.1c0,0,0.1-0.1,0.1-0.1l0.8-0.3c0,0,0,0,0.1,0
				c0.1,0,0.1,0,0.1,0.1c0,0,0.1,0.1,0.1,0.1v6.9c0,0.1,0,0.1-0.1,0.1c0,0-0.1,0.1-0.1,0.1H52C52,41.1,51.9,41.1,51.9,41.1z"/>
			<path class="st2" d="M55.5,41.1c-0.3-0.1-0.4-0.3-0.6-0.5c-0.1-0.2-0.2-0.5-0.2-0.8v-2.9h-0.5c-0.1,0-0.1,0-0.1-0.1
				c0,0-0.1-0.1-0.1-0.1v-0.6c0-0.1,0-0.1,0.1-0.1c0,0,0.1-0.1,0.1-0.1h0.5v-1.1c0,0,0-0.1,0-0.1c0,0,0.1-0.1,0.1-0.1l0.8-0.2
				c0,0,0,0,0,0c0.1,0,0.1,0,0.1,0.1c0,0,0.1,0.1,0.1,0.1v1.3h0.8c0.1,0,0.1,0,0.1,0.1c0,0,0.1,0.1,0.1,0.1v0.6c0,0.1,0,0.1-0.1,0.1
				c0,0-0.1,0.1-0.1,0.1h-0.8v2.7c0,0.2,0,0.3,0.1,0.4c0,0.1,0.1,0.1,0.2,0.2c0.1,0,0.2,0,0.3,0c0.1,0,0.1,0,0.2,0c0,0,0,0,0,0
				c0,0,0.1,0,0.1,0c0,0,0,0.1,0.1,0.1l0.1,0.6c0,0,0,0,0,0c0,0,0,0.1,0,0.1c0,0-0.1,0.1-0.1,0.1l-0.1,0c-0.1,0-0.3,0-0.5,0
				C56,41.2,55.7,41.2,55.5,41.1z"/>
			<path class="st2" d="M58.6,41.1c-0.3-0.1-0.5-0.3-0.6-0.5c-0.2-0.2-0.2-0.5-0.2-0.9c0-0.3,0.1-0.5,0.2-0.7
				c0.1-0.2,0.3-0.4,0.4-0.5c0.2-0.1,0.4-0.2,0.6-0.3c0.2-0.1,0.5-0.1,0.7-0.1c0.3,0,0.5-0.1,0.8-0.1c0.2,0,0.3-0.1,0.4-0.1
				c0.1-0.1,0.1-0.1,0.1-0.3v0c0-0.3-0.1-0.5-0.2-0.6c-0.2-0.1-0.4-0.2-0.7-0.2c-0.3,0-0.5,0.1-0.7,0.2c-0.1,0.1-0.2,0.2-0.3,0.3
				c0,0,0,0.1-0.1,0.1c0,0-0.1,0-0.1,0l-0.8-0.1c0,0-0.1,0-0.1-0.1c0,0,0-0.1,0-0.1c0,0,0,0,0-0.1c0.1-0.2,0.2-0.4,0.4-0.6
				c0.2-0.2,0.5-0.4,0.8-0.5c0.3-0.1,0.6-0.2,1-0.2c0.2,0,0.5,0,0.8,0.1c0.2,0.1,0.5,0.2,0.7,0.3c0.2,0.1,0.4,0.3,0.5,0.6
				c0.1,0.2,0.2,0.5,0.2,0.9v3.3c0,0.1,0,0.1-0.1,0.1c0,0-0.1,0.1-0.1,0.1h-0.8c-0.1,0-0.1,0-0.1-0.1c0,0-0.1-0.1-0.1-0.1v-0.5h0
				c-0.1,0.1-0.2,0.3-0.3,0.4c-0.1,0.1-0.3,0.2-0.5,0.3c-0.2,0.1-0.4,0.1-0.7,0.1C59.2,41.2,58.9,41.2,58.6,41.1z M59.2,40.1
				c0.2,0.1,0.4,0.2,0.6,0.2c0.2,0,0.5,0,0.6-0.2c0.2-0.1,0.3-0.2,0.4-0.4c0.1-0.2,0.2-0.3,0.2-0.5v-0.6c0,0-0.1,0.1-0.2,0.1
				c-0.1,0-0.2,0.1-0.3,0.1l-0.3,0.1l-0.3,0c-0.2,0-0.4,0.1-0.5,0.1c-0.2,0.1-0.3,0.1-0.3,0.2C59,39.3,59,39.5,59,39.6
				C59,39.9,59,40,59.2,40.1z"/>
			<path class="st2" d="M67.4,40.8c-0.5-0.3-0.9-0.7-1.1-1.2c-0.3-0.5-0.4-1.2-0.4-1.9c0-0.6,0.1-1.1,0.2-1.5
				c0.2-0.4,0.4-0.8,0.7-1.1c0.3-0.3,0.6-0.6,1-0.7c0.4-0.2,0.8-0.2,1.3-0.2c0.4,0,0.8,0.1,1.1,0.2c0.3,0.1,0.6,0.3,0.9,0.5
				c0.3,0.2,0.5,0.5,0.6,0.7c0.1,0.2,0.2,0.4,0.3,0.7c0,0,0,0,0,0c0,0.1,0,0.1-0.1,0.1c0,0-0.1,0.1-0.1,0.1h-0.9c0,0-0.1,0-0.1,0
				c0,0-0.1-0.1-0.1-0.1c-0.1-0.1-0.1-0.3-0.2-0.4c-0.1-0.1-0.2-0.3-0.4-0.4c-0.1-0.1-0.3-0.2-0.5-0.2c-0.2-0.1-0.4-0.1-0.6-0.1
				c-0.4,0-0.7,0.1-1,0.3c-0.3,0.2-0.5,0.5-0.7,0.8c-0.2,0.4-0.3,0.8-0.3,1.3c0,0.5,0.1,1,0.3,1.3c0.2,0.4,0.4,0.6,0.7,0.8
				c0.3,0.2,0.6,0.3,1,0.3c0.4,0,0.7-0.1,0.9-0.2c0.3-0.1,0.5-0.3,0.6-0.6c0.1-0.2,0.2-0.5,0.2-0.8h-1.4c-0.1,0-0.1,0-0.1-0.1
				c0,0-0.1-0.1-0.1-0.1v-0.6c0-0.1,0-0.1,0.1-0.1c0,0,0.1-0.1,0.1-0.1h2.5c0.1,0,0.1,0,0.1,0.1c0,0,0.1,0.1,0.1,0.1v0.6
				c0,0.6-0.1,1.1-0.4,1.6c-0.3,0.4-0.6,0.8-1.1,1c-0.4,0.2-1,0.4-1.5,0.4C68.4,41.2,67.9,41.1,67.4,40.8z"/>
			<path class="st2" d="M73.3,41.1c0,0-0.1-0.1-0.1-0.1v-5c0,0,0-0.1,0-0.1c0,0,0.1-0.1,0.1-0.1l0.8-0.3c0,0,0,0,0.1,0
				c0.1,0,0.1,0,0.1,0.1c0,0,0.1,0.1,0.1,0.1v1h0.1c0.1-0.3,0.3-0.5,0.5-0.7c0.2-0.2,0.5-0.3,0.8-0.3c0.1,0,0.1,0,0.2,0h0
				c0.1,0,0.1,0,0.1,0.1c0,0,0.1,0.1,0.1,0.1v0.7c0,0.1,0,0.1-0.1,0.2c0,0-0.1,0.1-0.2,0h0c-0.1,0-0.2,0-0.3,0c-0.2,0-0.4,0-0.6,0.1
				c-0.2,0.1-0.3,0.2-0.4,0.4c-0.1,0.2-0.2,0.4-0.2,0.6v2.9c0,0.1,0,0.1-0.1,0.1c0,0-0.1,0.1-0.1,0.1h-0.8
				C73.4,41.1,73.3,41.1,73.3,41.1z"/>
			<path class="st2" d="M77.8,40.9c-0.4-0.2-0.7-0.5-0.9-1c-0.2-0.4-0.3-0.9-0.3-1.4c0-0.5,0.1-1,0.3-1.4c0.2-0.4,0.5-0.7,0.9-1
				c0.4-0.2,0.8-0.3,1.3-0.3c0.5,0,1,0.1,1.3,0.3c0.4,0.2,0.7,0.5,0.9,1c0.2,0.4,0.3,0.9,0.3,1.4c0,0.5-0.1,1-0.3,1.4
				c-0.2,0.4-0.5,0.7-0.9,1c-0.4,0.2-0.8,0.3-1.3,0.3C78.6,41.2,78.2,41.1,77.8,40.9z M79.9,40c0.2-0.2,0.3-0.4,0.4-0.6
				c0.1-0.3,0.1-0.6,0.1-0.9c0-0.3,0-0.6-0.1-0.9c-0.1-0.3-0.2-0.5-0.4-0.6c-0.2-0.2-0.4-0.2-0.7-0.2c-0.3,0-0.5,0.1-0.7,0.2
				c-0.2,0.2-0.3,0.4-0.4,0.6c-0.1,0.3-0.1,0.6-0.1,0.9c0,0.3,0,0.6,0.1,0.9s0.2,0.5,0.4,0.6c0.2,0.2,0.4,0.2,0.7,0.2
				C79.4,40.2,79.7,40.2,79.9,40z"/>
			<path class="st2" d="M83.6,41c-0.3-0.2-0.5-0.4-0.6-0.7c-0.1-0.3-0.2-0.7-0.2-1.1v-3.2c0-0.1,0-0.1,0.1-0.1c0,0,0.1-0.1,0.1-0.1
				h0.8c0.1,0,0.1,0,0.1,0.1c0,0,0.1,0.1,0.1,0.1v3c0,0.3,0.1,0.6,0.3,0.8c0.2,0.2,0.4,0.3,0.7,0.3c0.2,0,0.4,0,0.5-0.1
				c0.2-0.1,0.3-0.2,0.4-0.4c0.1-0.2,0.2-0.4,0.2-0.7v-2.9c0-0.1,0-0.1,0.1-0.1c0,0,0.1-0.1,0.1-0.1h0.8c0.1,0,0.1,0,0.1,0.1
				c0,0,0.1,0.1,0.1,0.1v4.9c0,0.1,0,0.1-0.1,0.1c0,0-0.1,0.1-0.1,0.1h-0.8c-0.1,0-0.1,0-0.1-0.1c0,0-0.1-0.1-0.1-0.1v-0.7h-0.1
				c-0.1,0.3-0.3,0.5-0.6,0.7c-0.3,0.2-0.6,0.3-1,0.3C84.1,41.2,83.8,41.1,83.6,41z"/>
			<path class="st2" d="M88.7,43c0,0-0.1-0.1-0.1-0.1v-6.8c0,0,0-0.1,0-0.1c0,0,0.1-0.1,0.1-0.1l0.8-0.3c0,0,0,0,0.1,0
				c0.1,0,0.1,0,0.1,0.1c0,0,0.1,0.1,0.1,0.1v0.9h0.1c0.1-0.1,0.2-0.3,0.3-0.4c0.1-0.1,0.3-0.3,0.5-0.4c0.2-0.1,0.5-0.2,0.8-0.2
				c0.4,0,0.8,0.1,1.1,0.3c0.3,0.2,0.6,0.5,0.8,0.9c0.2,0.4,0.3,0.9,0.3,1.5c0,0.6-0.1,1.1-0.3,1.5c-0.2,0.4-0.4,0.7-0.8,0.9
				c-0.3,0.2-0.7,0.3-1.1,0.3c-0.3,0-0.5,0-0.8-0.2c-0.2-0.1-0.4-0.2-0.5-0.4c-0.1-0.1-0.2-0.3-0.3-0.4h-0.1v2.6
				c0,0.1,0,0.1-0.1,0.1c0,0-0.1,0.1-0.1,0.1h-0.8C88.8,43.1,88.7,43.1,88.7,43z M90,39.4c0.1,0.3,0.2,0.5,0.4,0.6
				c0.2,0.1,0.4,0.2,0.7,0.2c0.3,0,0.5-0.1,0.7-0.2c0.2-0.1,0.3-0.4,0.4-0.6c0.1-0.3,0.1-0.6,0.1-0.9c0-0.3,0-0.6-0.1-0.9
				c-0.1-0.3-0.2-0.5-0.4-0.6c-0.2-0.1-0.4-0.2-0.7-0.2c-0.3,0-0.5,0.1-0.7,0.2c-0.2,0.1-0.3,0.3-0.4,0.6c-0.1,0.3-0.1,0.5-0.1,0.9
				C89.8,38.8,89.9,39.1,90,39.4z"/>
			<path class="st2" d="M98.5,40.8c-0.5-0.3-0.9-0.7-1.1-1.2c-0.3-0.5-0.4-1.2-0.4-1.9s0.1-1.4,0.4-1.9c0.3-0.5,0.7-0.9,1.1-1.2
				c0.5-0.3,1-0.4,1.6-0.4c0.4,0,0.8,0.1,1.1,0.2c0.3,0.1,0.6,0.3,0.9,0.5c0.3,0.2,0.5,0.5,0.7,0.8c0.1,0.2,0.2,0.5,0.3,0.8
				c0,0,0,0,0,0c0,0.1,0,0.1-0.1,0.1c0,0-0.1,0.1-0.1,0.1H102c0,0-0.1,0-0.1,0c0,0-0.1-0.1-0.1-0.1c0-0.2-0.1-0.3-0.2-0.4
				c-0.1-0.2-0.2-0.3-0.4-0.4c-0.2-0.1-0.3-0.2-0.5-0.3c-0.2-0.1-0.4-0.1-0.6-0.1c-0.4,0-0.7,0.1-1,0.3c-0.3,0.2-0.5,0.5-0.7,0.8
				c-0.2,0.4-0.3,0.8-0.3,1.3s0.1,1,0.3,1.4c0.2,0.4,0.4,0.6,0.7,0.8c0.3,0.2,0.6,0.3,1,0.3c0.2,0,0.4,0,0.6-0.1
				c0.2-0.1,0.4-0.1,0.5-0.2c0.1-0.1,0.3-0.2,0.4-0.4c0.1-0.1,0.1-0.3,0.2-0.4c0,0,0-0.1,0.1-0.1c0,0,0.1,0,0.1,0l0.9,0
				c0.1,0,0.1,0,0.1,0.1c0,0,0.1,0.1,0.1,0.1c0,0,0,0,0,0c-0.1,0.2-0.1,0.5-0.3,0.7c-0.2,0.3-0.4,0.6-0.6,0.8
				c-0.3,0.2-0.6,0.4-0.9,0.5c-0.3,0.1-0.7,0.2-1.1,0.2C99.5,41.2,99,41.1,98.5,40.8z"/>
			<path class="st2" d="M105.2,40.9c-0.4-0.2-0.7-0.5-0.9-1c-0.2-0.4-0.3-0.9-0.3-1.4c0-0.5,0.1-1,0.3-1.4c0.2-0.4,0.5-0.7,0.9-1
				c0.4-0.2,0.8-0.3,1.3-0.3s1,0.1,1.3,0.3c0.4,0.2,0.7,0.5,0.9,1c0.2,0.4,0.3,0.9,0.3,1.4c0,0.5-0.1,1-0.3,1.4
				c-0.2,0.4-0.5,0.7-0.9,1s-0.8,0.3-1.3,0.3S105.6,41.1,105.2,40.9z M107.2,40c0.2-0.2,0.3-0.4,0.4-0.6c0.1-0.3,0.1-0.6,0.1-0.9
				c0-0.3,0-0.6-0.1-0.9c-0.1-0.3-0.2-0.5-0.4-0.6c-0.2-0.2-0.4-0.2-0.7-0.2c-0.3,0-0.5,0.1-0.7,0.2c-0.2,0.2-0.3,0.4-0.4,0.6
				c-0.1,0.3-0.1,0.6-0.1,0.9c0,0.3,0,0.6,0.1,0.9c0.1,0.3,0.2,0.5,0.4,0.6c0.2,0.2,0.4,0.2,0.7,0.2C106.8,40.2,107.1,40.2,107.2,40
				z"/>
			<path class="st2" d="M110.2,41.1c0,0-0.1-0.1-0.1-0.1v-4.9c0,0,0-0.1,0-0.1c0,0,0.1-0.1,0.1-0.1l0.8-0.3c0,0,0,0,0.1,0
				c0.1,0,0.1,0,0.1,0.1c0,0,0.1,0.1,0.1,0.1v0.9h0.1c0.1-0.3,0.3-0.5,0.5-0.7c0.3-0.2,0.6-0.3,0.9-0.3c0.4,0,0.7,0.1,0.9,0.3
				c0.2,0.2,0.4,0.4,0.5,0.7h0.1c0.1-0.3,0.3-0.5,0.6-0.7c0.3-0.2,0.6-0.3,1-0.3c0.5,0,0.9,0.2,1.2,0.5c0.3,0.3,0.5,0.8,0.5,1.3v3.3
				c0,0.1,0,0.1-0.1,0.1c0,0-0.1,0.1-0.1,0.1h-0.8c-0.1,0-0.1,0-0.1-0.1c0,0-0.1-0.1-0.1-0.1v-3.1c0-0.3-0.1-0.6-0.3-0.7
				c-0.2-0.2-0.4-0.2-0.6-0.2c-0.3,0-0.5,0.1-0.7,0.3c-0.2,0.2-0.3,0.4-0.3,0.7v3.1c0,0.1,0,0.1-0.1,0.1c0,0-0.1,0.1-0.1,0.1h-0.8
				c-0.1,0-0.1,0-0.1-0.1c0,0-0.1-0.1-0.1-0.1v-3.2c0-0.3-0.1-0.5-0.2-0.7c-0.2-0.2-0.4-0.2-0.6-0.2c-0.2,0-0.3,0-0.5,0.1
				c-0.1,0.1-0.3,0.2-0.3,0.4c-0.1,0.2-0.1,0.4-0.1,0.6v3c0,0.1,0,0.1-0.1,0.1c0,0-0.1,0.1-0.1,0.1h-0.8
				C110.3,41.1,110.2,41.1,110.2,41.1z"/>
			<path class="st2" d="M118.8,43c0,0-0.1-0.1-0.1-0.1v-6.8c0,0,0-0.1,0-0.1c0,0,0.1-0.1,0.1-0.1l0.8-0.3c0,0,0,0,0.1,0
				c0.1,0,0.1,0,0.1,0.1c0,0,0.1,0.1,0.1,0.1v0.9h0.1c0.1-0.1,0.2-0.3,0.3-0.4c0.1-0.1,0.3-0.3,0.5-0.4c0.2-0.1,0.5-0.2,0.8-0.2
				c0.4,0,0.8,0.1,1.1,0.3c0.3,0.2,0.6,0.5,0.8,0.9c0.2,0.4,0.3,0.9,0.3,1.5c0,0.6-0.1,1.1-0.3,1.5c-0.2,0.4-0.4,0.7-0.8,0.9
				c-0.3,0.2-0.7,0.3-1.1,0.3c-0.3,0-0.5,0-0.8-0.2c-0.2-0.1-0.4-0.2-0.5-0.4c-0.1-0.1-0.2-0.3-0.3-0.4H120v2.6c0,0.1,0,0.1-0.1,0.1
				c0,0-0.1,0.1-0.1,0.1H119C118.9,43.1,118.9,43.1,118.8,43z M120.2,39.4c0.1,0.3,0.2,0.5,0.4,0.6c0.2,0.1,0.4,0.2,0.7,0.2
				c0.3,0,0.5-0.1,0.7-0.2c0.2-0.1,0.3-0.4,0.4-0.6c0.1-0.3,0.1-0.6,0.1-0.9c0-0.3,0-0.6-0.1-0.9c-0.1-0.3-0.2-0.5-0.4-0.6
				c-0.2-0.1-0.4-0.2-0.7-0.2c-0.3,0-0.5,0.1-0.7,0.2c-0.2,0.1-0.3,0.3-0.4,0.6c-0.1,0.3-0.1,0.5-0.1,0.9
				C120,38.8,120.1,39.1,120.2,39.4z"/>
			<path class="st2" d="M125.4,41.1c-0.3-0.1-0.5-0.3-0.6-0.5c-0.2-0.2-0.2-0.5-0.2-0.9c0-0.3,0.1-0.5,0.2-0.7
				c0.1-0.2,0.3-0.4,0.4-0.5c0.2-0.1,0.4-0.2,0.6-0.3c0.2-0.1,0.5-0.1,0.7-0.1c0.3,0,0.5-0.1,0.8-0.1c0.2,0,0.3-0.1,0.4-0.1
				c0.1-0.1,0.1-0.1,0.1-0.3v0c0-0.3-0.1-0.5-0.2-0.6c-0.2-0.1-0.4-0.2-0.7-0.2c-0.3,0-0.5,0.1-0.7,0.2c-0.1,0.1-0.2,0.2-0.3,0.3
				c0,0,0,0.1-0.1,0.1c0,0-0.1,0-0.1,0l-0.8-0.1c0,0-0.1,0-0.1-0.1c0,0,0-0.1,0-0.1c0,0,0,0,0-0.1c0.1-0.2,0.2-0.4,0.4-0.6
				c0.2-0.2,0.5-0.4,0.8-0.5c0.3-0.1,0.6-0.2,1-0.2c0.2,0,0.5,0,0.8,0.1c0.2,0.1,0.5,0.2,0.7,0.3c0.2,0.1,0.4,0.3,0.5,0.6
				c0.1,0.2,0.2,0.5,0.2,0.9v3.3c0,0.1,0,0.1-0.1,0.1c0,0-0.1,0.1-0.1,0.1h-0.8c-0.1,0-0.1,0-0.1-0.1c0,0-0.1-0.1-0.1-0.1v-0.5h0
				c-0.1,0.1-0.2,0.3-0.3,0.4c-0.1,0.1-0.3,0.2-0.5,0.3c-0.2,0.1-0.4,0.1-0.7,0.1C126,41.2,125.7,41.2,125.4,41.1z M126,40.1
				c0.2,0.1,0.4,0.2,0.6,0.2c0.2,0,0.5,0,0.6-0.2c0.2-0.1,0.3-0.2,0.4-0.4c0.1-0.2,0.2-0.3,0.2-0.5v-0.6c0,0-0.1,0.1-0.2,0.1
				c-0.1,0-0.2,0.1-0.3,0.1l-0.3,0.1l-0.3,0c-0.2,0-0.4,0.1-0.5,0.1c-0.2,0.1-0.3,0.1-0.3,0.2c-0.1,0.1-0.1,0.2-0.1,0.4
				C125.8,39.9,125.9,40,126,40.1z"/>
			<path class="st2" d="M130.4,41.1c0,0-0.1-0.1-0.1-0.2v-4.8c0,0,0-0.1,0-0.1c0,0,0.1-0.1,0.1-0.1l0.8-0.3c0,0,0,0,0.1,0
				c0.1,0,0.1,0,0.1,0.1c0,0,0.1,0.1,0.1,0.1v0.9c0,0,0,0,0,0c0,0,0,0,0,0c0,0,0,0,0,0c0.1-0.3,0.3-0.5,0.6-0.7
				c0.3-0.2,0.6-0.3,1-0.3c0.4,0,0.7,0.1,1,0.2c0.3,0.2,0.5,0.4,0.6,0.7c0.1,0.3,0.2,0.7,0.2,1.1v3.1c0,0.1,0,0.1-0.1,0.2
				c0,0-0.1,0.1-0.2,0.1H134c-0.1,0-0.1,0-0.2-0.1c0,0-0.1-0.1-0.1-0.2V38c0-0.3-0.1-0.6-0.3-0.8c-0.2-0.2-0.4-0.3-0.8-0.3
				c-0.2,0-0.4,0-0.6,0.1c-0.2,0.1-0.3,0.2-0.4,0.4c-0.1,0.2-0.1,0.4-0.1,0.6v2.9c0,0.1,0,0.1-0.1,0.2c0,0-0.1,0.1-0.2,0.1h-0.8
				C130.5,41.1,130.5,41.1,130.4,41.1z"/>
			<path class="st2" d="M136.4,43.1l-0.1,0c0,0-0.1,0-0.1-0.1c0,0,0-0.1,0-0.1c0,0,0,0,0-0.1l0.2-0.6c0,0,0-0.1,0.1-0.1
				c0,0,0.1,0,0.1,0c0.1,0,0.2,0,0.3,0c0.1,0,0.2,0,0.2,0c0.2-0.1,0.3-0.2,0.5-0.5l0.1-0.3l-1.8-5.1c0,0,0-0.1,0-0.1
				c0-0.1,0-0.1,0.1-0.1c0,0,0.1-0.1,0.1-0.1h0.9c0,0,0.1,0,0.1,0c0,0,0.1,0.1,0.1,0.1l1.2,3.8h0.1l1.2-3.8c0,0,0-0.1,0.1-0.1
				c0,0,0.1,0,0.1,0l0.9,0c0.1,0,0.1,0,0.1,0.1c0,0,0.1,0.1,0.1,0.1c0,0,0,0,0,0.1l-2,5.6c-0.1,0.3-0.2,0.5-0.4,0.7
				c-0.2,0.2-0.4,0.4-0.6,0.5c-0.2,0.1-0.5,0.2-0.8,0.2C136.7,43.1,136.5,43.1,136.4,43.1z"/>
		</g>
	</g>
</g>
</svg>
